<svg width="32" height="30" viewBox="0 0 32 30" fill="none" xmlns="http://www.w3.org/2000/svg">
<g clip-path="url(#clip0_1_703)">
<path fill-rule="evenodd" clip-rule="evenodd" d="M25.458 0.00031785C25.7508 0.174842 25.8557 0.433878 25.8317 0.770969C25.8128 1.03668 25.8279 1.30481 25.8279 1.62819C26.1504 1.62819 26.4488 1.62811 26.7473 1.62819C27.343 1.62826 27.939 1.61755 28.5344 1.63112C29.4583 1.6521 30.0581 2.23869 30.0589 3.1444C30.0625 7.3376 30.0573 11.5307 30.0522 15.7239C30.0517 16.1362 29.8532 16.3556 29.5087 16.3568C29.1636 16.358 28.9611 16.1343 28.9608 15.7283C28.9597 14.1268 28.9638 12.5254 28.9652 10.9239C28.966 9.9854 28.9654 9.04683 28.9654 8.08757C19.6671 8.08757 10.3985 8.08757 1.09383 8.08757C1.09383 8.23297 1.09383 8.36406 1.09383 8.49516C1.09383 15.0723 1.09383 21.6493 1.0939 28.2265C1.09398 28.8257 1.1608 28.8925 1.76721 28.8921C6.73946 28.8889 11.7118 28.8844 16.684 28.8827C17.5714 28.8824 18.4587 28.8931 19.3461 28.9011C19.754 28.9047 19.9789 29.0961 19.9861 29.4378C19.9937 29.7977 19.7663 30 19.336 29.9999C13.4154 29.9983 7.49455 29.9943 1.57388 29.9931C0.760128 29.993 0.263662 29.5716 -0.000366211 28.8271C-0.000366211 20.1472 -0.000366211 11.4673 -0.000366211 2.78735C0.306414 1.91855 0.934714 1.57485 1.82799 1.6232C2.31132 1.64939 2.79706 1.62789 3.28185 1.62782C3.59133 1.62782 3.90081 1.62789 4.23284 1.62789C4.23284 1.32029 4.24538 1.06529 4.22985 0.812051C4.20883 0.471072 4.28996 0.187241 4.59536 -4.81905e-05C4.7169 -4.81905e-05 4.83851 -4.81905e-05 4.96006 -4.81905e-05C5.24123 0.180418 5.35585 0.433951 5.33134 0.771116C5.31135 1.0457 5.32718 1.32293 5.32718 1.60427C6.34791 1.60427 7.32252 1.60427 8.32961 1.60427C8.32961 1.32799 8.34259 1.07395 8.32647 0.821735C8.3048 0.481709 8.40424 0.20514 8.68031 -0.00012207C8.80193 -0.00012207 8.92354 -0.00012207 9.04509 -0.00012207C9.34487 0.166626 9.44948 0.425075 9.42774 0.762166C9.40994 1.03778 9.4241 1.3156 9.4241 1.60478C10.4466 1.60478 11.4228 1.60478 12.4368 1.60478C12.4368 1.30452 12.4451 1.02648 12.4348 0.749181C12.4223 0.414951 12.5252 0.152394 12.8384 -0.00012207C12.9355 -0.00012207 13.0329 -0.00012207 13.1301 -0.00012207C13.4411 0.154228 13.546 0.416125 13.5336 0.750428C13.5234 1.02773 13.5316 1.30569 13.5316 1.59466C14.5544 1.59466 15.5379 1.59466 16.5443 1.59466C16.5443 1.29498 16.5586 1.02692 16.5407 0.761066C16.518 0.423901 16.6213 0.165086 16.9233 -0.00012207C17.0449 -0.00012207 17.1665 -0.00012207 17.288 -0.00012207C17.8735 0.419793 17.5209 1.08158 17.6768 1.59855C18.6721 1.59855 19.6459 1.59855 20.6412 1.59855C20.6412 1.30298 20.6568 1.03521 20.6373 0.770162C20.6124 0.433511 20.7232 0.17807 21.0083 -0.00012207C21.1299 -0.00012207 21.2515 -0.00012207 21.3731 -0.00012207C21.6739 0.189661 21.7601 0.471072 21.7388 0.812932C21.7224 1.07542 21.7356 1.33973 21.7356 1.60214C22.7586 1.60214 23.7329 1.60214 24.7337 1.60214C24.7337 1.32323 24.7469 1.06845 24.7305 0.815645C24.7082 0.473712 24.8009 0.194723 25.0934 -0.00012207C25.2149 0.000318092 25.3364 0.00031785 25.458 0.00031785ZM1.09463 6.94226C10.4091 6.94226 19.675 6.94226 28.9651 6.94226C28.9651 5.64965 28.9687 4.38074 28.9626 3.1119C28.9611 2.80855 28.7474 2.72984 28.4894 2.72947C27.8088 2.72822 27.1283 2.72881 26.4477 2.72866C26.2477 2.72866 26.0476 2.72866 25.8287 2.72866C25.8287 3.19604 25.8519 3.6007 25.818 4.00051C25.8031 4.17518 25.7128 4.39996 25.5808 4.49203C25.4509 4.58248 25.1749 4.60882 25.0538 4.52717C24.8997 4.42344 24.7699 4.19022 24.7486 3.99941C24.7033 3.59292 24.7349 3.17785 24.7349 2.75419C23.7144 2.75419 22.7382 2.75419 21.7356 2.75419C21.7356 3.15665 21.7389 3.53387 21.7346 3.91109C21.7298 4.34611 21.5333 4.6006 21.2021 4.61249C20.8578 4.62481 20.6456 4.36071 20.6419 3.90801C20.6388 3.52286 20.6412 3.13772 20.6412 2.74906C19.6165 2.74906 18.6494 2.74906 17.638 2.74906C17.638 3.16817 17.6473 3.56805 17.6354 3.96721C17.6234 4.36548 17.3994 4.61395 17.0813 4.61212C16.7611 4.61021 16.5524 4.36284 16.5461 3.96075C16.5397 3.56211 16.5446 3.16325 16.5446 2.73013C15.5737 2.73013 14.6528 2.72529 13.7321 2.74026C13.6646 2.74136 13.5477 2.88243 13.5421 2.96452C13.5193 3.29295 13.5506 3.62542 13.5228 3.95305C13.5084 4.12427 13.4583 4.34281 13.3418 4.44134C13.2166 4.54719 12.9849 4.59437 12.8173 4.56524C12.5428 4.51763 12.4444 4.2754 12.441 4.00961C12.4356 3.59725 12.4395 3.18482 12.4395 2.75324C11.4144 2.75324 10.4382 2.75324 9.41768 2.75324C9.41768 3.2138 9.42738 3.65117 9.41446 4.08774C9.40498 4.40664 9.2042 4.58762 8.90399 4.60412C8.61822 4.6199 8.41657 4.45938 8.36127 4.16623C8.33223 4.01203 8.33304 3.85108 8.33092 3.69299C8.32662 3.38098 8.32961 3.06876 8.32961 2.75984C7.29626 2.75984 6.32069 2.75984 5.3271 2.75984C5.3271 3.16912 5.33031 3.54737 5.3263 3.92554C5.3217 4.35558 5.11655 4.61161 4.78358 4.61329C4.44922 4.61491 4.23991 4.35983 4.23415 3.93009C4.22897 3.54267 4.23298 3.15518 4.23298 2.73285C3.28528 2.73285 2.37705 2.72595 1.46912 2.73754C1.23077 2.74055 1.095 2.89512 1.09485 3.14594C1.09434 4.40275 1.09463 5.65978 1.09463 6.94226Z" fill="#393737"/>
<path fill-rule="evenodd" clip-rule="evenodd" d="M28.7176 21.8104C29.1632 22.0083 29.6245 22.146 30.0111 22.399C30.8504 22.9485 31.1967 23.8119 31.2267 24.7769C31.2677 26.0951 31.2439 27.4157 31.2345 28.7352C31.2288 29.5378 30.7521 29.9999 29.9531 29.9999C27.5351 30.0001 25.1172 29.9989 22.6991 29.9949C21.8051 29.9935 21.3602 29.5435 21.3574 28.6381C21.3536 27.404 21.3546 26.1699 21.3569 24.9358C21.36 23.3498 22.231 22.2619 23.777 21.9059C23.8111 21.8982 23.8418 21.8762 23.9113 21.8431C23.2787 20.9961 23.0281 20.0605 23.298 19.0283C23.4764 18.3458 23.8553 17.7779 24.4212 17.3625C25.7333 16.3994 27.2773 16.5031 28.4715 17.6232C29.3414 18.4391 29.9251 20.157 28.7176 21.8104ZM22.4721 28.8801C22.8122 28.8801 23.1115 28.8801 23.4601 28.8801C23.4601 28.6248 23.4599 28.3839 23.4602 28.1432C23.4609 27.4223 23.4538 26.7015 23.4659 25.9807C23.4721 25.6216 23.6822 25.3973 23.9784 25.3832C24.2851 25.3688 24.5172 25.6007 24.5485 25.9671C24.562 26.1248 24.5544 26.2846 24.5545 26.4433C24.5549 27.2466 24.5547 28.0498 24.5547 28.874C25.7299 28.874 26.8651 28.874 28.0472 28.874C28.0472 28.7145 28.0471 28.5715 28.0473 28.4285C28.0479 27.6223 28.0408 26.8158 28.0524 26.0096C28.058 25.6241 28.2685 25.3934 28.577 25.3831C28.8968 25.3724 29.1292 25.6156 29.1373 26.0113C29.15 26.6342 29.1419 27.2573 29.1423 27.8805C29.1425 28.2063 29.1423 28.532 29.1423 28.8597C29.4976 28.8597 29.8035 28.8597 30.1309 28.8597C30.1309 27.518 30.133 26.2117 30.1303 24.9054C30.1277 23.7093 29.3895 22.9645 28.1989 22.9602C26.9354 22.9557 25.6718 22.9562 24.4084 22.9602C23.1997 22.9639 22.4593 23.706 22.4524 24.9272C22.4454 26.1366 22.4504 27.3461 22.4516 28.5555C22.4519 28.6514 22.4635 28.7472 22.4721 28.8801ZM28.3073 19.8339C28.3129 18.7363 27.4155 17.822 26.328 17.8173C25.1916 17.8124 24.2895 18.7123 24.2897 19.8507C24.29 20.9366 25.2026 21.8523 26.2891 21.8569C27.3932 21.8616 28.3015 20.951 28.3073 19.8339Z" fill="#BF2A30"/>
<path fill-rule="evenodd" clip-rule="evenodd" d="M17.0703 23.6661C17.0702 24.0082 17.0759 24.3504 17.0689 24.6924C17.0567 25.2961 16.7535 25.6334 16.1552 25.6524C15.439 25.6747 14.721 25.6742 14.0048 25.6528C13.4226 25.6355 13.1086 25.3215 13.0897 24.7325C13.0665 24.0124 13.0661 23.2904 13.0895 22.5702C13.1095 21.9541 13.4479 21.6514 14.0744 21.6443C14.7426 21.6368 15.4111 21.637 16.0793 21.6443C16.7374 21.6515 17.0609 21.9809 17.0694 22.6397C17.074 22.9819 17.0703 23.3239 17.0703 23.6661ZM15.9458 24.5375C15.9458 23.9296 15.9458 23.3433 15.9458 22.7618C15.3502 22.7618 14.7852 22.7618 14.2114 22.7618C14.2114 23.3669 14.2114 23.9528 14.2114 24.5375C14.8109 24.5375 15.3754 24.5375 15.9458 24.5375Z" fill="#393737"/>
<path fill-rule="evenodd" clip-rule="evenodd" d="M2.99587 23.6157C2.99587 23.2736 2.98631 22.931 2.99799 22.5893C3.01834 21.9932 3.34285 21.6581 3.9327 21.6463C4.63724 21.6321 5.34258 21.6328 6.04719 21.646C6.63594 21.6572 6.97256 21.9882 6.98766 22.5839C7.00547 23.2921 7.00495 24.0017 6.98795 24.7101C6.97358 25.3073 6.64842 25.6374 6.0528 25.6537C5.34849 25.6731 4.64271 25.6726 3.93839 25.654C3.32593 25.6376 3.01199 25.2985 2.9974 24.6788C2.98894 24.3247 2.99573 23.9701 2.99587 23.6157ZM4.11429 22.7582C4.11429 23.3684 4.11429 23.9462 4.11429 24.5327C4.71333 24.5327 5.28779 24.5327 5.87107 24.5327C5.87107 23.9286 5.87107 23.3508 5.87107 22.7582C5.27976 22.7582 4.71319 22.7582 4.11429 22.7582Z" fill="#393737"/>
<path fill-rule="evenodd" clip-rule="evenodd" d="M10.0621 21.6428C10.3903 21.6428 10.7186 21.6375 11.0466 21.6439C11.6831 21.6564 12.0202 21.9822 12.0297 22.6131C12.0402 23.3096 12.0412 24.0065 12.0292 24.7029C12.0191 25.2859 11.712 25.6289 11.1389 25.6501C10.4108 25.677 9.68024 25.6747 8.9517 25.6516C8.37447 25.6332 8.05726 25.3051 8.04136 24.723C8.02203 24.0146 8.02385 23.305 8.04026 22.5967C8.05449 21.9823 8.39294 21.6596 9.00475 21.6445C9.35705 21.6357 9.70965 21.6428 10.0621 21.6428ZM9.157 22.7572C9.157 23.3701 9.157 23.9478 9.157 24.5327C9.75918 24.5327 10.3344 24.5327 10.9136 24.5327C10.9136 23.9279 10.9136 23.3494 10.9136 22.7572C10.3221 22.7572 9.75502 22.7572 9.157 22.7572Z" fill="#393737"/>
<path fill-rule="evenodd" clip-rule="evenodd" d="M5.10598 10.6915C5.45829 10.6919 5.81096 10.6817 6.1629 10.6943C6.72451 10.7141 7.05062 11.021 7.06594 11.5827C7.08586 12.3152 7.0844 13.0489 7.06675 13.7815C7.05318 14.346 6.72859 14.6689 6.17457 14.6797C5.44595 14.694 4.71654 14.6933 3.98778 14.6805C3.43193 14.6707 3.10254 14.3599 3.08335 13.7929C3.05847 13.0608 3.05934 12.3266 3.08225 11.5944C3.10056 11.0117 3.43033 10.71 4.01259 10.6931C4.37679 10.6825 4.74149 10.6911 5.10598 10.6915ZM4.18462 13.563C4.79168 13.563 5.36658 13.563 5.9503 13.563C5.9503 12.9651 5.9503 12.3887 5.9503 11.8207C5.34776 11.8207 4.77294 11.8207 4.18462 11.8207C4.18462 12.407 4.18462 12.9637 4.18462 13.563Z" fill="#393737"/>
<path fill-rule="evenodd" clip-rule="evenodd" d="M10.0208 14.6843C9.68064 14.6846 9.34037 14.6904 9.00033 14.6833C8.39662 14.6709 8.06007 14.3685 8.04212 13.7722C8.02046 13.0521 8.02162 12.3304 8.04161 11.6101C8.05795 11.024 8.38283 10.7057 8.95736 10.6946C9.67386 10.6808 10.391 10.6814 11.1077 10.6943C11.6893 10.705 12.0134 11.0208 12.0275 11.6036C12.045 12.3239 12.0435 13.0453 12.0279 13.7656C12.0154 14.3489 11.6904 14.665 11.1143 14.6819C10.75 14.6927 10.3852 14.684 10.0208 14.6843ZM10.9204 11.823C10.3032 11.823 9.72901 11.823 9.15543 11.823C9.15543 12.4217 9.15543 12.988 9.15543 13.5608C9.75579 13.5608 10.3307 13.5608 10.9204 13.5608C10.9204 12.9703 10.9204 12.4036 10.9204 11.823Z" fill="#393737"/>
<path fill-rule="evenodd" clip-rule="evenodd" d="M15.0607 14.684C14.7083 14.6843 14.3558 14.6919 14.0038 14.6826C13.4385 14.6676 13.1013 14.3767 13.08 13.8151C13.0513 13.0589 13.05 12.2998 13.0819 11.5437C13.1049 10.9986 13.4374 10.7053 13.9841 10.6951C14.7127 10.6814 15.4421 10.6807 16.1708 10.6963C16.7132 10.7079 17.0403 11.0179 17.0575 11.5604C17.081 12.3048 17.0793 13.051 17.0595 13.7957C17.0446 14.355 16.7127 14.6644 16.154 14.6816C15.7899 14.6928 15.4252 14.6838 15.0607 14.684ZM14.1777 13.5605C14.7897 13.5605 15.3647 13.5605 15.941 13.5605C15.941 12.961 15.941 12.3857 15.941 11.8231C15.336 11.8231 14.7618 11.8231 14.1777 11.8231C14.1777 12.4121 14.1777 12.9688 14.1777 13.5605Z" fill="#393737"/>
<path fill-rule="evenodd" clip-rule="evenodd" d="M22.1108 12.754C22.1108 13.0961 22.1166 13.4383 22.1094 13.7802C22.0971 14.3676 21.7973 14.7121 21.2266 14.73C20.4862 14.7533 19.7439 14.7539 19.0036 14.7283C18.4605 14.7095 18.1558 14.3909 18.1399 13.8402C18.1188 13.1078 18.1193 12.374 18.1376 11.6415C18.1523 11.0566 18.4681 10.7406 19.0528 10.7251C19.7691 10.7061 20.4868 10.7044 21.203 10.726C21.7949 10.7438 22.0987 11.0855 22.1097 11.6911C22.116 12.0453 22.1108 12.3997 22.1108 12.754ZM19.2422 13.6158C19.852 13.6158 20.4157 13.6158 20.9949 13.6158C20.9949 13.0163 20.9949 12.4382 20.9949 11.8488C20.4019 11.8488 19.8293 11.8488 19.2422 11.8488C19.2422 12.4473 19.2422 13.0171 19.2422 13.6158Z" fill="#393737"/>
<path fill-rule="evenodd" clip-rule="evenodd" d="M4.97072 20.1855C4.61841 20.1853 4.26581 20.1938 3.91387 20.1834C3.35131 20.1665 3.01965 19.8642 3.0028 19.3031C2.98047 18.5586 2.97975 17.8124 3.00375 17.068C3.02177 16.5084 3.35284 16.2057 3.92124 16.1957C4.63774 16.1829 5.3549 16.1822 6.0714 16.196C6.64586 16.207 6.97095 16.5258 6.987 17.1118C7.00677 17.8319 7.00801 18.5536 6.98649 19.2738C6.96869 19.8696 6.63185 20.1726 6.0277 20.1847C5.67547 20.1917 5.32302 20.186 4.97072 20.1855ZM4.10954 19.0521C4.71172 19.0521 5.29369 19.0521 5.86939 19.0521C5.86939 18.4517 5.86939 17.8856 5.86939 17.3194C5.26779 17.3194 4.69334 17.3194 4.10954 17.3194C4.10954 17.9128 4.10954 18.4791 4.10954 19.0521Z" fill="#393737"/>
<path fill-rule="evenodd" clip-rule="evenodd" d="M27.152 12.7288C27.152 13.0833 27.1594 13.4377 27.1503 13.7918C27.1352 14.3798 26.8351 14.7139 26.2592 14.7311C25.5308 14.7526 24.8008 14.7526 24.0724 14.731C23.4977 14.714 23.1906 14.3795 23.1811 13.7923C23.1696 13.0838 23.1695 12.3749 23.1811 11.6665C23.191 11.0666 23.5077 10.7395 24.1083 10.7246C24.8127 10.7073 25.518 10.7074 26.2224 10.7245C26.8239 10.7392 27.1346 11.0664 27.1503 11.666C27.1595 12.02 27.152 12.3745 27.152 12.7288ZM26.0426 11.8433C25.435 11.8433 24.8718 11.8433 24.295 11.8433C24.295 12.4443 24.295 13.022 24.295 13.6084C24.8909 13.6084 25.4634 13.6084 26.0426 13.6084C26.0426 13.01 26.0426 12.4401 26.0426 11.8433Z" fill="#393737"/>
<path fill-rule="evenodd" clip-rule="evenodd" d="M20.1083 20.1823C19.7319 20.1823 19.3551 20.196 18.9795 20.1789C18.4874 20.1567 18.1691 19.8739 18.1516 19.3829C18.1233 18.5909 18.123 17.7964 18.1501 17.0043C18.167 16.5098 18.4797 16.2148 18.9706 16.2023C19.7349 16.1825 20.5003 16.1818 21.2645 16.2013C21.7825 16.2143 22.0945 16.5416 22.1054 17.068C22.1209 17.8123 22.1205 18.5574 22.1062 19.3017C22.0957 19.8438 21.7747 20.1531 21.2372 20.1845C21.213 20.1858 21.1886 20.1858 21.1644 20.1858C20.8123 20.1859 20.4602 20.1858 20.1081 20.1858C20.1082 20.1848 20.1083 20.1834 20.1083 20.1823ZM19.241 19.0591C19.8446 19.0591 20.4173 19.0591 20.995 19.0591C20.995 18.465 20.995 17.8978 20.995 17.3197C20.4016 17.3197 19.8287 17.3197 19.241 17.3197C19.241 17.905 19.241 18.4631 19.241 19.0591Z" fill="#393737"/>
<path fill-rule="evenodd" clip-rule="evenodd" d="M9.62968 18.2321C9.99555 17.8547 10.312 17.5193 10.6386 17.1941C10.9428 16.891 11.2614 16.8588 11.5 17.0911C11.7461 17.3308 11.7248 17.6482 11.4245 17.9567C10.9837 18.4093 10.5392 18.8583 10.0872 19.2994C9.77742 19.6015 9.5004 19.607 9.19435 19.3203C8.92857 19.0714 8.67133 18.8123 8.42335 18.5455C8.17515 18.2783 8.16604 17.9451 8.38067 17.7281C8.60005 17.5061 8.92047 17.5166 9.19136 17.7678C9.3326 17.8988 9.45721 18.048 9.62968 18.2321Z" fill="#BF2A30"/>
<path fill-rule="evenodd" clip-rule="evenodd" d="M14.6546 18.2317C15.0335 17.8443 15.3519 17.5101 15.68 17.1859C15.9835 16.886 16.3047 16.8593 16.5411 17.0993C16.7812 17.3428 16.7539 17.6538 16.4502 17.9649C16.0174 18.4083 15.5811 18.8483 15.1388 19.2821C14.7988 19.6153 14.5354 19.6147 14.1937 19.2867C13.9397 19.043 13.6879 18.7958 13.4496 18.5366C13.204 18.2693 13.2014 17.9335 13.422 17.72C13.6462 17.5031 13.9608 17.5193 14.2329 17.7756C14.3726 17.9071 14.4949 18.0574 14.6546 18.2317Z" fill="#BF2A30"/>
</g>
<defs>
<clipPath id="clip0_1_703">
<rect width="31.25" height="30" fill="white"/>
</clipPath>
</defs>
</svg>
